<svg width="64" height="64" viewBox="0 0 64 64" fill="none" xmlns="http://www.w3.org/2000/svg">
<path opacity="0.1" d="M18.5928 24.9675C19.4565 25.7981 20.4092 26.5309 21.4336 27.1525C20.8021 29.0833 20.4499 31.0945 20.3876 33.125H15.4028C15.5767 30.1369 16.6936 27.2809 18.5928 24.9675Z" fill="#0051F9"/>
<path opacity="0.1" d="M26 47.8984C23.6612 47.2202 21.524 45.9797 19.775 44.2852C20.4796 43.6056 21.2512 42.999 22.0782 42.475C22.982 44.5427 24.3195 46.3922 26 47.8984Z" fill="#0051F9"/>
<path opacity="0.1" d="M22.0782 25.4736C21.2512 24.9497 20.4795 24.3431 19.775 23.6634C21.5239 21.9688 23.6612 20.7282 26 20.05C24.3195 21.5562 22.982 23.4058 22.0782 25.4736Z" fill="#0051F9"/>
<path opacity="0.1" d="M20.3876 34.875C20.45 36.8992 20.8023 38.904 21.434 40.8281C20.4095 41.4498 19.4569 42.1826 18.5932 43.0132C16.7142 40.6954 15.5997 37.8523 15.4028 34.875H20.3876Z" fill="#0051F9"/>
<path d="M60.1249 31.8079C60.1247 36.957 58.7088 42.0069 56.032 46.4056C53.3553 50.8042 49.5207 54.3823 44.9476 56.7486C40.3744 59.1149 35.2387 60.1784 30.1019 59.8228C24.9651 59.4672 20.025 57.7061 15.8216 54.7322L19.7898 49.3464C19.8915 49.2084 19.9504 49.0435 19.9592 48.8722C19.968 48.701 19.9263 48.5309 19.8392 48.3832C19.7522 48.2354 19.6236 48.1165 19.4696 48.0412C19.3155 47.9659 19.1427 47.9376 18.9727 47.9597L9.61418 49.175C9.49707 49.1902 9.38423 49.2289 9.28247 49.2887C9.1807 49.3486 9.09212 49.4285 9.02204 49.5236C8.95197 49.6186 8.90186 49.7269 8.87473 49.8418C8.8476 49.9567 8.84401 50.0759 8.86418 50.1923L10.4767 59.4907C10.506 59.6596 10.5843 59.8162 10.7018 59.941C10.8194 60.0658 10.971 60.1533 11.1379 60.1927C11.3048 60.2321 11.4796 60.2215 11.6405 60.1624C11.8014 60.1033 11.9415 59.9982 12.0432 59.8602L14.7834 56.1413C19.2475 59.3075 24.4965 61.1847 29.956 61.5674C35.4156 61.9502 40.8751 60.8237 45.7373 58.3113C50.5995 55.7989 54.6768 51.9974 57.5231 47.3228C60.3694 42.6483 61.8749 37.2808 61.8749 31.8079C61.8824 27.8623 61.1019 23.955 59.5792 20.3151C59.4882 20.1032 59.3173 19.9357 59.1035 19.8491C58.8897 19.7625 58.6504 19.7639 58.4376 19.8529C58.2248 19.9418 58.0557 20.1112 57.9671 20.3242C57.8786 20.5372 57.8777 20.7765 57.9647 20.9901C59.3978 24.4163 60.1322 28.0941 60.1249 31.8079ZM11.8507 57.1713L10.7449 50.7929L17.1646 49.9592L13.9054 54.3827C13.9028 54.3859 13.8998 54.3889 13.8973 54.3923C13.8931 54.3979 13.8897 54.4039 13.8856 54.4095L11.8507 57.1713Z" fill="#5BECCC"/>
<path d="M3.87505 32.1921C3.87532 27.043 5.29122 21.9931 7.96797 17.5945C10.6447 13.1958 14.4793 9.61774 19.0524 7.25142C23.6256 4.8851 28.7613 3.82162 33.8981 4.17725C39.0349 4.53288 43.975 6.29393 48.1784 9.26787L44.2102 14.6536C44.1085 14.7917 44.0496 14.9566 44.0408 15.1278C44.032 15.2991 44.0737 15.4691 44.1608 15.6169C44.2478 15.7646 44.3763 15.8835 44.5304 15.9588C44.6845 16.0341 44.8573 16.0625 45.0273 16.0404L54.3858 14.825C54.5029 14.8099 54.6158 14.7712 54.7175 14.7113C54.8193 14.6514 54.9079 14.5715 54.9779 14.4765C55.048 14.3814 55.0981 14.2732 55.1253 14.1583C55.1524 14.0433 55.156 13.9241 55.1358 13.8078L53.5233 4.50937C53.494 4.34044 53.4157 4.18384 53.2981 4.05904C53.1806 3.93423 53.0289 3.84671 52.8621 3.80734C52.6952 3.76798 52.5204 3.77851 52.3595 3.83763C52.1986 3.89675 52.0585 4.00185 51.9568 4.13987L49.2166 7.85875C44.7525 4.69254 39.5035 2.81534 34.0439 2.43261C28.5844 2.04987 23.1248 3.17635 18.2627 5.68875C13.4005 8.20116 9.32317 12.0027 6.47689 16.6772C3.6306 21.3518 2.12507 26.7192 2.12505 32.1921C2.11756 36.1377 2.89808 40.045 4.4208 43.6849C4.51175 43.8969 4.68271 44.0644 4.8965 44.1509C5.1103 44.2375 5.34963 44.2361 5.56243 44.1472C5.77524 44.0582 5.9443 43.8888 6.03286 43.6758C6.12141 43.4628 6.12229 43.2235 6.0353 43.0099C4.60218 39.5838 3.86774 35.9059 3.87505 32.1921ZM52.1493 6.82875L53.2551 13.2071L46.8354 14.0409L50.0946 9.6175C50.0972 9.61412 50.1002 9.61112 50.1027 9.60775C50.1069 9.60212 50.1103 9.59612 50.1144 9.5905L52.1493 6.82875Z" fill="#5BECCC"/>
<path d="M41.9408 28.2489C42.7538 28.2529 43.5498 28.0154 44.2278 27.5666C44.9058 27.1178 45.4354 26.4778 45.7493 25.7278C46.0632 24.9777 46.1475 24.1514 45.9913 23.3534C45.8351 22.5555 45.4456 21.8218 44.8721 21.2454C44.2986 20.6691 43.5668 20.2759 42.7697 20.1158C41.9725 19.9557 41.1457 20.0359 40.3941 20.3461C39.6425 20.6563 39 21.1827 38.5478 21.8584C38.0956 22.5342 37.8543 23.329 37.8543 24.1421C37.8528 25.2282 38.2822 26.2706 39.0483 27.0405C39.8144 27.8104 40.8546 28.245 41.9408 28.2489ZM41.9408 21.7855C42.4077 21.7815 42.8654 21.9163 43.2556 22.1728C43.6458 22.4293 43.951 22.796 44.1325 23.2263C44.314 23.6565 44.3635 24.131 44.2749 24.5895C44.1863 25.048 43.9634 25.4698 43.6346 25.8015C43.3058 26.1331 42.8859 26.3596 42.4282 26.4521C41.9705 26.5447 41.4956 26.4992 41.0638 26.3214C40.6319 26.1436 40.2627 25.8416 40.0028 25.4536C39.743 25.0656 39.6042 24.6091 39.6043 24.1421C39.6023 23.52 39.8472 22.9225 40.2852 22.4807C40.7232 22.0389 41.3186 21.7889 41.9408 21.7855Z" fill="#0051F9"/>
<path d="M30.2108 50.2452C30.3232 50.2452 30.4346 50.2432 30.5461 50.241C30.5669 50.2425 30.5872 50.2454 30.6086 50.2454C30.6474 50.2451 30.6861 50.2422 30.7245 50.2367C39.6334 49.9695 46.7971 42.7777 46.7971 33.9741C46.7971 33.5604 46.7776 32.5478 46.732 31.7846L47.9381 30.5256C48.7744 29.6722 49.4265 28.6563 49.8543 27.5406C50.2609 26.4664 50.4326 25.3175 50.3576 24.1713C50.2141 22.0794 49.3083 20.1129 47.8117 18.6443C46.2417 17.1122 44.1349 16.2546 41.9412 16.2546C39.7476 16.2546 37.6408 17.1122 36.0708 18.6443C36.0458 18.6693 36.0208 18.6959 35.9958 18.7214C34.1423 18.045 32.1842 17.7003 30.2113 17.7033C21.0654 17.7035 13.625 25.0026 13.625 33.975C13.625 42.9474 21.0654 50.2452 30.2108 50.2452ZM18.5928 24.9675C19.4564 25.7981 20.4091 26.5309 21.4335 27.1525C20.802 29.0833 20.4498 31.0945 20.3875 33.125H15.4028C15.5766 30.1369 16.6935 27.2809 18.5928 24.9675ZM29.375 19.8108V27.7866C27.3923 27.676 25.4501 27.1802 23.657 26.327C24.8888 23.5 26.75 21.2411 29.375 19.8108ZM29.375 29.5395V33.125H22.1386C22.1995 31.3793 22.4968 29.65 23.0222 27.9841C25.0188 28.91 27.1765 29.4383 29.375 29.5395ZM29.375 34.875V38.4093C27.1749 38.5192 25.0172 39.0562 23.0222 39.9903C22.5073 38.3307 22.2102 36.6112 22.1386 34.875H29.375ZM29.375 40.1625V48.1375C26.75 46.707 24.8886 44.4487 23.657 41.6213C25.4502 40.7683 27.3923 40.2728 29.375 40.1625ZM26 47.8988C23.6611 47.2205 21.5239 45.9799 19.775 44.2853C20.4796 43.6056 21.2512 42.9991 22.0781 42.475C22.982 44.5428 24.3195 46.3923 26 47.8984V47.8988ZM31.125 48.1384V40.1625C33.1066 40.2759 35.0462 40.7802 36.832 41.6464C35.6 44.4625 33.625 46.7118 31.125 48.1375V48.1384ZM38.3279 42.5102C39.1461 43.037 39.9094 43.6446 40.6063 44.3239C38.8647 45.9988 36.7424 47.2256 34.4219 47.8989C36.0929 46.4012 37.4246 44.5639 38.3279 42.5098V42.5102ZM31.125 38.4097V34.875H38.2829C38.2232 36.6179 37.9366 38.3456 37.4305 40.0144C35.4503 39.082 33.31 38.5373 31.125 38.4097ZM38.2769 32.974C38.279 33.0199 38.2809 33 38.2826 33.125H31.125V29.5375C32.3489 29.4775 33.5623 29.2818 34.743 28.954C35.0893 29.5218 35.4951 30.0511 35.9536 30.5329L38.2769 32.974ZM33.9796 27.3439C33.0431 27.5752 32.0877 27.7226 31.125 27.7844V19.8094C32.1668 20.4204 33.1246 21.1645 33.9741 22.023C33.7391 22.7178 33.5945 23.4399 33.544 24.1716C33.4741 25.2476 33.6223 26.3266 33.9796 27.3439ZM22.0781 25.4736C21.2512 24.9497 20.4795 24.3432 19.775 23.6634C21.5239 21.9688 23.6611 20.7282 26 20.05C24.3195 21.5562 22.982 23.4058 22.0781 25.4736ZM20.3875 34.875C20.4499 36.8992 20.8023 38.904 21.4339 40.8282C20.4095 41.4498 19.4568 42.1826 18.5931 43.0133C16.7142 40.6954 15.5996 37.8523 15.4028 34.875H20.3875ZM45.047 33.975C45.0461 37.2816 43.8962 40.4852 41.794 43.0375C40.9377 42.2076 39.993 41.4741 38.9769 40.85C39.6216 38.8948 39.9787 36.8562 40.037 34.7981L41.3094 36.1263C41.3911 36.2115 41.4891 36.2794 41.5977 36.3257C41.7063 36.372 41.8231 36.3959 41.9412 36.3959C42.0592 36.3959 42.1761 36.372 42.2847 36.3257C42.3932 36.2794 42.4913 36.2115 42.573 36.1263L45.0429 33.5481C45.0451 33.7135 45.0466 33.8603 45.0466 33.975H45.047ZM41.9408 18.0049C43.677 17.9966 45.3462 18.6751 46.5843 19.8924C47.7755 21.061 48.4966 22.6261 48.6111 24.2909C48.6689 25.189 48.5334 26.0891 48.2137 26.9304C47.8689 27.8223 47.3449 28.6341 46.674 29.3155L41.9408 34.256L37.2075 29.3153C36.5367 28.6338 36.0126 27.8221 35.6678 26.9303C35.3482 26.0889 35.2127 25.1888 35.2704 24.2906C35.3849 22.6258 36.1061 21.0608 37.2974 19.8921C38.5354 18.6749 40.2045 17.9965 41.9408 18.0049ZM34.7359 20.3375C34.6305 20.2386 34.5244 20.1409 34.4165 20.0454C34.5567 20.0859 34.6964 20.1285 34.8354 20.1733C34.801 20.2276 34.7689 20.283 34.7359 20.3375Z" fill="#0051F9"/>
</svg>
