<svg width="172" height="45" viewBox="0 0 172 45" fill="none" xmlns="http://www.w3.org/2000/svg">
<g clip-path="url(#clip0_3008_5557)">
<path d="M72.3225 21.1765L77.3365 13.9076H79.1348L73.2322 22.374L79.3146 31.082H77.5058L72.3225 23.582L67.1075 31.0925H65.3198L71.4128 22.3845L65.4996 13.9181H67.2979L72.3225 21.1765Z" fill="#353760"/>
<path d="M91.6381 26.8698C91.6381 25.9139 91.289 25.1681 90.6015 24.6114C89.9033 24.0547 88.6445 23.5294 86.7933 23.0357C84.9528 22.5315 83.5988 21.9958 82.7525 21.3971C81.5466 20.5673 80.9436 19.4748 80.9436 18.1198C80.9436 16.8068 81.5043 15.7353 82.6256 14.916C83.7468 14.0967 85.1855 13.687 86.9309 13.687C88.1156 13.687 89.1734 13.9076 90.1043 14.3488C91.0352 14.79 91.765 15.3992 92.2728 16.187C92.7911 16.9748 93.045 17.8467 93.045 18.8131H91.5323C91.5323 17.6366 91.1198 16.6912 90.2841 15.9769C89.4484 15.2626 88.3377 14.9055 86.9309 14.9055C85.5663 14.9055 84.4873 15.1996 83.6728 15.7879C82.8689 16.3761 82.4563 17.1429 82.4563 18.0883C82.4563 18.9601 82.816 19.6744 83.5459 20.2311C84.2758 20.7773 85.4393 21.271 87.0366 21.6912C88.6339 22.1114 89.8504 22.5526 90.6755 23.0042C91.5006 23.4559 92.1141 24.0021 92.5373 24.6219C92.9498 25.2521 93.1614 25.9979 93.1614 26.8488C93.1614 28.2038 92.6007 29.2857 91.4794 30.1051C90.3582 30.9244 88.8772 31.3341 87.0472 31.3341C85.7884 31.3341 84.6354 31.1135 83.5882 30.6828C82.5409 30.2521 81.7476 29.6429 81.1975 28.8656C80.658 28.0883 80.383 27.1954 80.383 26.187H81.8851C81.8851 27.395 82.3505 28.3509 83.292 29.0546C84.2334 29.7584 85.4817 30.1051 87.0366 30.1051C88.4224 30.1051 89.5331 29.811 90.3793 29.2227C91.215 28.624 91.6381 27.8362 91.6381 26.8698Z" fill="#353760"/>
<path d="M108.828 25.7353C108.627 27.5421 107.95 28.9286 106.818 29.8845C105.675 30.8404 104.163 31.3236 102.269 31.3236C100.947 31.3236 99.7833 31.0085 98.7678 30.3677C97.7523 29.7269 96.9695 28.8236 96.4088 27.6576C95.8588 26.4916 95.5732 25.1576 95.5626 23.6555V21.4286C95.5626 19.9055 95.8376 18.5505 96.3983 17.374C96.9483 16.1975 97.7523 15.2837 98.7889 14.6429C99.8256 14.0021 101.021 13.6765 102.385 13.6765C104.29 13.6765 105.802 14.1702 106.902 15.1681C108.002 16.1555 108.648 17.5316 108.828 19.2858H107.315C106.945 16.3656 105.294 14.9055 102.385 14.9055C100.767 14.9055 99.4871 15.4832 98.5245 16.6492C97.5619 17.8152 97.0858 19.4223 97.0858 21.4811V23.582C97.0858 25.5673 97.5513 27.1429 98.4822 28.3299C99.413 29.5064 100.682 30.1051 102.269 30.1051C103.845 30.1051 105.03 29.7374 105.834 29.0127C106.638 28.2879 107.125 27.1954 107.315 25.7353H108.828Z" fill="#353760"/>
<path d="M121.638 26.2605H113.545L111.705 31.082H110.129L116.867 13.9076H118.295L125.033 31.082H123.468L121.638 26.2605ZM114.011 25.042H121.162L117.586 15.6828L114.011 25.042Z" fill="#353760"/>
<path d="M129.127 29.8635H137.928V31.0925H127.614V13.9181H129.127V29.8635Z" fill="#353760"/>
<path d="M150.452 22.8572H142.117V29.8635H151.701V31.0925H140.615V13.9181H151.637V15.1471H142.117V21.6387H150.452V22.8572Z" fill="#353760"/>
<path d="M153.911 30.6408C153.911 30.4938 153.964 30.3782 154.06 30.2732C154.155 30.1681 154.292 30.1261 154.461 30.1261C154.631 30.1261 154.768 30.1786 154.863 30.2732C154.959 30.3782 155.012 30.4938 155.012 30.6408C155.012 30.7879 154.959 30.9034 154.863 30.998C154.768 31.0925 154.631 31.1345 154.461 31.1345C154.292 31.1345 154.155 31.0925 154.06 30.998C153.954 30.9034 153.911 30.7879 153.911 30.6408Z" fill="#77789E"/>
<path d="M163.125 22.1323V28.2458C163.125 28.8445 162.987 29.3697 162.712 29.8214C162.437 30.2731 162.057 30.6092 161.559 30.8508C161.062 31.0924 160.491 31.208 159.856 31.208C158.873 31.208 158.09 30.9454 157.508 30.4307C156.916 29.916 156.609 29.2017 156.588 28.2878V22.1113H157.371V28.1723C157.371 28.9286 157.593 29.5168 158.037 29.9265C158.481 30.3466 159.095 30.5462 159.856 30.5462C160.618 30.5462 161.232 30.3361 161.676 29.916C162.12 29.4958 162.342 28.9181 162.342 28.1723V22.1008H163.125V22.1323Z" fill="#77789E"/>
<path d="M167.261 26.6388L165.949 27.8783V31.0925H165.167V22.1324H165.949V26.9644L170.709 22.1324H171.704L167.811 26.124L172 31.0925H171.037L167.261 26.6388Z" fill="#77789E"/>
<path d="M33.9345 1.70164C34.5375 1.97475 34.8548 2.21635 34.7596 2.26887C34.5798 2.36341 32.5805 1.44954 32.5277 1.26047L32.5382 1.24996C32.6758 1.21845 33.3951 1.44954 33.9345 1.70164Z" fill="#5BECCC"/>
<path d="M34.326 1.44952C34.9713 1.69111 35.3415 1.92221 35.278 1.97473C35.1723 2.05876 32.9932 1.23943 32.8662 1.07136V1.06086C32.972 1.02935 33.6913 1.20792 34.326 1.44952Z" fill="#5BECCC"/>
<path d="M34.5586 1.18694C35.151 1.37602 35.627 1.5966 35.6165 1.67013C35.4049 1.78568 33.0989 0.882318 33.0989 0.861309C33.1729 0.829797 33.9134 0.976856 34.5586 1.18694Z" fill="#5BECCC"/>
<path d="M34.6433 0.913929C35.2462 1.07149 35.754 1.27107 35.7751 1.35511C35.6693 1.46015 33.2046 0.682836 33.1941 0.661828C33.321 0.619811 34.0932 0.76687 34.6433 0.913929Z" fill="#5BECCC"/>
<path d="M34.5693 0.640758C35.1511 0.777313 35.6906 0.94538 35.754 1.02941C35.6377 1.13446 33.1941 0.462187 33.1836 0.441179C33.2682 0.399162 33.9663 0.4937 34.5693 0.640758Z" fill="#5BECCC"/>
<path d="M34.3259 0.357107C34.8759 0.462149 35.426 0.609208 35.5318 0.693242C35.5318 0.693242 35.5318 0.703746 35.5318 0.71425C35.3731 0.735258 33.1094 0.273073 33.0354 0.231056C33.0882 0.18904 33.7441 0.252065 34.3259 0.357107Z" fill="#5BECCC"/>
<path d="M34.8866 0.304616C35.0452 0.346632 35.0981 0.367641 35.1299 0.399153C35.0558 0.462178 32.7815 0.0420106 32.7709 0.0315064V0.0210022C32.7815 0.0210022 32.8027 0.010498 32.8556 0.010498C33.5431 0.063019 34.2307 0.168061 34.8866 0.304616Z" fill="#5BECCC"/>
<path d="M32.6123 3.85498C33.0249 4.38019 32.9191 4.74784 32.5488 4.69532C31.8507 4.61129 31.0256 3.32978 31.3429 3.09868C31.3641 3.08818 31.3958 3.07767 31.417 3.06717C31.7872 3.03566 32.3479 3.50835 32.6123 3.85498Z" fill="#5BECCC"/>
<path d="M35.5848 4.36979C36.0185 4.80047 36.1137 5.18912 35.8069 5.21013C35.1934 5.24164 34.0192 3.90761 34.2414 3.67652C34.2519 3.66601 34.2837 3.65551 34.3048 3.645C34.6222 3.60299 35.2674 4.04416 35.5848 4.36979Z" fill="#5BECCC"/>
<path d="M36.6743 4.03361C37.2243 4.48529 37.3407 4.83193 37.0868 4.86344C36.5473 4.92647 35.1298 3.64496 35.2568 3.40336C35.2674 3.39286 35.2885 3.37185 35.2991 3.37185C35.5636 3.30882 36.23 3.67647 36.6743 4.03361Z" fill="#5BECCC"/>
<path d="M37.5311 3.65545C38.1446 4.08612 38.335 4.42225 38.1235 4.45376C37.7215 4.52729 35.9233 3.2878 36.0925 3.05671C36.0925 3.0462 36.1031 3.0462 36.1137 3.0462C36.3358 2.98318 37.0445 3.30881 37.5311 3.65545Z" fill="#5BECCC"/>
<path d="M38.1658 3.23528C38.8111 3.62394 39.0967 3.96007 38.9169 4.01259C38.6101 4.09663 36.6426 2.92016 36.7272 2.71007C36.7272 2.69957 36.7378 2.69957 36.7378 2.68907C36.9176 2.61554 37.6369 2.92016 38.1658 3.23528Z" fill="#5BECCC"/>
<path d="M38.5572 2.80467C39.2236 3.16181 39.5833 3.48744 39.4563 3.53996C39.2342 3.6345 37.108 2.50005 37.1609 2.31097C37.2772 2.23744 38.0071 2.52106 38.5572 2.80467Z" fill="#5BECCC"/>
<path d="M38.6947 2.35292C39.3612 2.66805 39.7949 2.98317 39.7102 3.0462C39.5727 3.15124 37.3936 2.11132 37.3513 1.92225C37.4148 1.85922 38.0812 2.06931 38.6947 2.35292Z" fill="#5BECCC"/>
<path d="M38.5677 1.9013C39.1601 2.1534 39.6784 2.45803 39.6784 2.55256C39.5409 2.6471 37.3936 1.6387 37.3195 1.53366C37.3195 1.52315 37.3301 1.52315 37.3301 1.51265C37.4888 1.50214 38.0388 1.68072 38.5677 1.9013Z" fill="#5BECCC"/>
<path d="M38.1763 1.44959C38.7264 1.67018 39.2976 1.95379 39.3611 2.05883L39.3505 2.06934C39.1601 2.05883 37.2137 1.26052 37.0656 1.13447C37.0656 1.13447 37.0656 1.12396 37.055 1.12396C37.1397 1.08194 37.7532 1.28152 38.1763 1.44959Z" fill="#5BECCC"/>
<path d="M38.4514 1.41812C38.6101 1.49165 38.7158 1.54417 38.7476 1.57569C38.6947 1.5967 36.6637 0.808881 36.5579 0.75636C36.5579 0.75636 36.5473 0.745856 36.5367 0.745856V0.735352C36.5579 0.735352 36.5579 0.735352 36.5791 0.735352C37.2243 0.924427 37.8484 1.15552 38.4514 1.41812Z" fill="#5BECCC"/>
<path d="M32.1363 7.28997C32.4324 8.06728 31.9141 8.48745 31.3217 8.20384C30.4861 7.79418 30.2957 6.47065 30.8775 6.32359C30.8986 6.31308 30.9198 6.31308 30.9409 6.31308C31.5016 6.28157 31.9776 6.88031 32.1363 7.28997Z" fill="#5BECCC"/>
<path d="M36.3992 7.57358C36.7589 8.23535 36.505 8.75005 35.9021 8.55047C35.0347 8.26686 34.5269 6.95383 35.0029 6.68073C35.0347 6.65972 35.077 6.64921 35.1193 6.63871C35.6165 6.6072 36.1771 7.17442 36.3992 7.57358Z" fill="#5BECCC"/>
<path d="M38.1552 7.17434C38.5783 7.77307 38.4937 8.27728 37.9753 8.18274C37.1397 8.02517 36.3146 6.64913 36.706 6.3445C36.7271 6.3235 36.7694 6.31299 36.8012 6.30249C37.256 6.23946 37.8696 6.78568 38.1552 7.17434Z" fill="#5BECCC"/>
<path d="M39.615 6.71215C40.0804 7.24786 40.1439 7.74156 39.7419 7.73105C39.012 7.71005 37.8802 6.27097 38.1658 5.94534C38.1869 5.92434 38.2187 5.91383 38.2398 5.89282C38.6206 5.81929 39.2871 6.334 39.615 6.71215Z" fill="#5BECCC"/>
<path d="M40.7891 6.19747C41.318 6.71218 41.4767 7.19537 41.117 7.20587C40.5141 7.21638 39.0543 5.7668 39.3611 5.47268C39.3716 5.46218 39.3822 5.46218 39.3928 5.45167C39.6996 5.35714 40.3977 5.81932 40.7891 6.19747Z" fill="#5BECCC"/>
<path d="M41.646 5.6408C42.2172 6.1345 42.4711 6.60719 42.1749 6.6282C41.6883 6.65971 40.091 5.26265 40.2708 4.96853C40.2708 4.95803 40.2814 4.95803 40.292 4.94753C40.5141 4.84248 41.2229 5.28366 41.646 5.6408Z" fill="#5BECCC"/>
<path d="M42.1749 5.05254C42.7567 5.50422 43.1057 5.98741 42.8836 6.00842C42.598 6.05043 40.7363 4.72691 40.8738 4.41178C41.0113 4.30674 41.6671 4.66388 42.1749 5.05254Z" fill="#5BECCC"/>
<path d="M42.3547 4.44333C42.9576 4.87401 43.3808 5.32569 43.2221 5.36771C42.9682 5.43073 41.1594 4.12821 41.1382 3.8656C41.2123 3.75006 41.847 4.07569 42.3547 4.44333Z" fill="#5BECCC"/>
<path d="M42.1855 3.83404C42.8096 4.25421 43.275 4.67438 43.201 4.7269C43.0846 4.80043 41.2335 3.56093 41.1065 3.30883C41.1065 3.30883 41.1065 3.29833 41.1065 3.28782C41.1594 3.2248 41.6672 3.4874 42.1855 3.83404Z" fill="#5BECCC"/>
<path d="M41.6566 3.21428C42.1749 3.53992 42.7567 3.98109 42.799 4.06513C42.6932 4.06513 40.8949 2.88865 40.7363 2.7416C40.7257 2.73109 40.7257 2.72059 40.7151 2.71008C40.8209 2.71008 41.3286 3.0147 41.6566 3.21428Z" fill="#5BECCC"/>
<path d="M40.1439 2.25836C40.6834 2.59449 41.4133 3.02516 41.9422 3.3823C41.6248 3.16172 41.6248 3.16172 40.017 2.19533C40.0064 2.18483 39.9852 2.17432 39.9746 2.16382H39.9852C40.0381 2.19533 40.091 2.22684 40.1439 2.25836Z" fill="#5BECCC"/>
<path d="M33.5749 12.1218C33.797 12.9832 33.12 13.5399 32.3796 13.1092C31.5439 12.626 31.4275 11.2185 32.1997 11.0294C32.2209 11.0189 32.2632 11.0189 32.2844 11.0189C32.9614 10.9874 33.448 11.6492 33.5749 12.1218Z" fill="#5BECCC"/>
<path d="M36.1982 12.3635C36.505 13.1618 36.0396 13.7395 35.3203 13.4454C34.4 13.0567 34.0086 11.5861 34.7596 11.334C34.7808 11.3235 34.8125 11.3235 34.8337 11.313C35.4789 11.25 36.0184 11.8908 36.1982 12.3635Z" fill="#5BECCC"/>
<path d="M40.3872 10.4622C40.768 11.1975 40.5036 11.7857 39.8689 11.6071C39.012 11.355 38.335 9.90544 38.8957 9.52728C38.9274 9.50628 38.9803 9.48527 39.0226 9.47476C39.5621 9.39073 40.1545 10.0105 40.3872 10.4622Z" fill="#5BECCC"/>
<path d="M42.1961 9.89494C42.6404 10.5987 42.5029 11.208 41.9316 11.0504C41.1277 10.8298 40.2709 9.2857 40.7786 8.99158C40.7892 8.98108 40.8209 8.97057 40.8315 8.97057C41.2969 8.85503 41.9211 9.45377 42.1961 9.89494Z" fill="#5BECCC"/>
<path d="M43.6241 9.26472C44.1001 9.91598 44.1213 10.4937 43.6664 10.4412C42.9471 10.3467 41.8364 8.76052 42.2489 8.42438C42.2595 8.41388 42.2807 8.40337 42.2913 8.39287C42.6721 8.26682 43.3173 8.83405 43.6241 9.26472Z" fill="#5BECCC"/>
<path d="M44.682 8.57142C45.1897 9.19117 45.3378 9.7794 44.957 9.73739C44.4175 9.67436 43.0424 8.11974 43.4126 7.75209C43.6665 7.62604 44.2694 8.07772 44.682 8.57142Z" fill="#5BECCC"/>
<path d="M45.3272 7.84664C45.8667 8.44538 46.1206 9.02311 45.8138 8.9916C45.4013 8.96009 43.9627 7.43698 44.1425 7.07983C44.3329 6.94328 44.957 7.43698 45.3272 7.84664Z" fill="#5BECCC"/>
<path d="M45.5599 7.10086C46.11 7.65759 46.4696 8.23532 46.2581 8.22481C45.9725 8.21431 44.5021 6.75423 44.5127 6.38658C44.5761 6.25002 45.105 6.64918 45.5599 7.10086Z" fill="#5BECCC"/>
<path d="M45.3589 6.34458C45.8137 6.78576 46.2898 7.34248 46.2686 7.43702C46.1311 7.47904 44.6184 5.99794 44.4598 5.68282C44.4598 5.67231 44.4598 5.66181 44.4598 5.65131C44.5444 5.61979 44.9887 5.98744 45.3589 6.34458Z" fill="#5BECCC"/>
<path d="M44.5761 5.47272L45.7503 6.62818C45.7609 6.63869 45.7609 6.63869 45.7715 6.64919C45.7291 6.61768 44.0789 5.06306 43.9837 4.96852C43.9732 4.95802 43.9626 4.94752 43.952 4.93701C43.9732 4.94752 43.9837 4.95802 44.153 5.09457L44.5761 5.47272Z" fill="#5BECCC"/>
<path d="M27.355 6.84877C27.429 7.84667 26.4347 8.39289 25.6731 7.78364C24.8797 7.15339 25.0066 5.71431 26.0962 5.57776C26.9001 5.58826 27.3127 6.32356 27.355 6.84877Z" fill="#5BECCC"/>
<path d="M33.1519 16.1975C33.3211 17.1849 32.4008 17.7837 31.5863 17.2164C30.7506 16.6282 30.7295 15.1786 31.7873 15C32.5912 14.958 33.0672 15.6828 33.1519 16.1975Z" fill="#5BECCC"/>
<path d="M38.1975 16.6911C38.4408 17.6155 37.7532 18.2457 36.9599 17.8361C36.029 17.3424 35.8703 15.8403 36.7166 15.5777C36.7483 15.5672 36.78 15.5672 36.8118 15.5567C37.5417 15.4831 38.06 16.1764 38.1975 16.6911Z" fill="#5BECCC"/>
<path d="M20.5532 14.7899C20.5638 15.4622 19.8128 15.8088 19.3368 15.3466C18.8819 14.916 19.0406 14.0441 19.7387 13.9706C20.2888 13.9706 20.5427 14.4433 20.5532 14.7899Z" fill="#5BECCC"/>
<path d="M27.4925 14.3172C27.4608 15.1576 26.477 15.5357 25.9375 14.916C25.4721 14.3803 25.726 13.4559 26.5511 13.3613C27.2175 13.3508 27.5031 13.9181 27.4925 14.3172Z" fill="#5BECCC"/>
<path d="M25.0807 18.9391C25.0066 19.6219 24.2344 19.853 23.7901 19.3278C23.3564 18.8236 23.5997 17.9832 24.3402 17.9937C24.9114 18.0778 25.1124 18.5925 25.0807 18.9391Z" fill="#5BECCC"/>
<path d="M19.5166 5.28367C19.432 6.05047 18.5646 6.31308 18.0674 5.72484C17.5808 5.15762 17.8559 4.21224 18.6915 4.22274C19.3262 4.31728 19.5589 4.89501 19.5166 5.28367Z" fill="#5BECCC"/>
<path d="M30.7612 19.2857C30.7083 19.8214 30.0313 20.021 29.7034 19.5903C29.4072 19.2122 29.6082 18.6134 30.1688 18.5924C30.6237 18.6239 30.7823 19.0231 30.7612 19.2857Z" fill="#5BECCC"/>
<path d="M15.444 13.3929C15.3699 14.1387 14.439 14.4433 13.9736 13.8656C13.561 13.3614 13.8361 12.5315 14.6083 12.479C15.243 12.5 15.4757 13.0252 15.444 13.3929Z" fill="#5BECCC"/>
<path d="M49.5584 24.9685C49.5478 26.0399 48.9555 26.8487 48.5218 26.3655C48.0563 25.8403 48.1727 24.2017 48.8391 23.8235C49.3469 23.6344 49.569 24.3802 49.5584 24.9685Z" fill="#5BECCC"/>
<path d="M51.0182 24.0126C51.0288 25.042 50.648 25.8613 50.3201 25.4937C49.9393 25.0735 49.971 23.3088 50.4682 22.8886C50.849 22.6891 51.0182 23.4243 51.0182 24.0126Z" fill="#5BECCC"/>
<path d="M51.9279 23.0042C51.9491 23.897 51.7798 24.7059 51.5894 24.5798C51.325 24.3907 51.2509 22.3949 51.5683 21.9012C51.7904 21.6911 51.9068 22.4159 51.9279 23.0042Z" fill="#5BECCC"/>
<path d="M52.2453 21.9643C52.277 22.6471 52.2664 23.4559 52.2029 23.5609C52.076 23.4874 52.0125 21.292 52.0866 20.8719C52.0866 20.8613 52.0972 20.8403 52.1077 20.8298C52.1924 20.8719 52.2347 21.7122 52.2453 21.9643Z" fill="#5BECCC"/>
<path d="M12.6196 27.0903C12.5984 28.0462 11.6358 28.3403 10.9165 27.605C10.1126 26.7857 10.377 25.4517 11.3185 25.5042C11.3502 25.5042 11.3925 25.5147 11.4349 25.5147C12.2599 25.7038 12.6302 26.5546 12.6196 27.0903Z" fill="#5BECCC"/>
<path d="M16.1633 23.2983C16.121 24.3067 14.9468 24.6008 14.2064 23.8025C13.4659 22.9937 13.815 21.7542 14.7882 21.7752C14.8199 21.7752 14.8728 21.7857 14.9045 21.7857C15.8142 21.9432 16.1845 22.7626 16.1633 23.2983Z" fill="#5BECCC"/>
<path d="M23.3988 25.2941C23.3353 26.208 22.1717 26.4706 21.5476 25.7143C20.9976 25.042 21.3149 24.0126 22.2987 24.0336C23.1132 24.1387 23.4305 24.832 23.3988 25.2941Z" fill="#5BECCC"/>
<path d="M29.5869 23.5504C29.5023 24.3592 28.4445 24.6324 27.8839 23.9916C27.3973 23.4244 27.704 22.5 28.6032 22.479C29.3542 22.5525 29.6292 23.1513 29.5869 23.5504Z" fill="#5BECCC"/>
<path d="M44.8935 30.8929C44.6925 31.9958 43.5501 32.6786 43.0741 31.9748C42.651 31.3551 43.1058 30.021 44.0473 29.7374C44.7983 29.6114 44.9993 30.3362 44.8935 30.8929Z" fill="#5BECCC"/>
<path d="M47.3793 30.1156C47.1889 31.1765 46.2898 31.9013 45.8878 31.3341C45.4858 30.7774 45.8984 29.3278 46.7129 28.9917C47.3476 28.8341 47.4851 29.5484 47.3793 30.1156Z" fill="#5BECCC"/>
<path d="M49.3575 29.2437C49.1776 30.2626 48.5112 31.0189 48.1833 30.5777C47.8342 30.105 48.215 28.5189 48.8815 28.1513C49.3786 27.9517 49.4632 28.6765 49.3575 29.2437Z" fill="#5BECCC"/>
<path d="M50.8067 28.2983C50.6375 29.2542 50.172 30.042 49.9499 29.7164C49.6854 29.3277 50.0133 27.6365 50.5317 27.2164C50.8913 27.0063 50.9125 27.7206 50.8067 28.2983Z" fill="#5BECCC"/>
<path d="M51.7058 27.3004C51.5683 28.1618 51.2932 28.9286 51.1663 28.813C50.9864 28.6555 51.2826 26.7227 51.6211 26.229C51.7164 26.1239 51.7692 26.2185 51.7692 26.5126C51.7798 26.5966 51.7692 26.8697 51.7058 27.3004Z" fill="#5BECCC"/>
<path d="M51.8856 27.2164L51.7798 27.7311C51.7692 27.7731 51.7692 27.7836 51.7587 27.8047C51.7481 27.6786 52.0654 25.5568 52.1394 25.1891C52.1394 25.1786 52.15 25.1576 52.15 25.1471C52.15 25.1786 52.15 25.1786 52.15 25.2416C52.076 25.8404 51.9914 26.6387 51.8856 27.2164Z" fill="#5BECCC"/>
<path d="M38.0706 35.9244C37.7744 37.0063 36.1877 37.458 35.754 36.5861C35.4684 36.0189 35.9338 35.021 37.0445 34.8424C37.9754 34.7794 38.1976 35.4412 38.0706 35.9244Z" fill="#5BECCC"/>
<path d="M41.3392 35.3991C41.0113 36.4391 39.6573 36.9748 39.2342 36.2395C38.8957 35.6512 39.488 34.5693 40.493 34.3592C41.3392 34.2542 41.4979 34.9054 41.3392 35.3991Z" fill="#5BECCC"/>
<path d="M44.1742 34.7584C43.8357 35.7563 42.7038 36.3655 42.3547 35.7458C42.0374 35.1996 42.6298 34.0126 43.5395 33.7395C44.2694 33.6134 44.354 34.2542 44.1742 34.7584Z" fill="#5BECCC"/>
<path d="M46.5543 34.0126C46.2052 34.979 45.2955 35.6303 45.0204 35.1366C44.7348 34.6429 45.3378 33.3403 46.1311 33.0252C46.7235 32.8571 46.7341 33.4979 46.5543 34.0126Z" fill="#5BECCC"/>
<path d="M48.4477 33.1723C48.1092 34.0861 47.3898 34.7899 47.1888 34.4013C46.9667 33.9706 47.5591 32.5525 48.2255 32.1849C48.7016 32.0063 48.6381 32.6576 48.4477 33.1723Z" fill="#5BECCC"/>
<path d="M49.8335 32.2689C49.5055 33.1408 48.9661 33.8655 48.8497 33.5924C48.7122 33.2458 49.3046 31.7017 49.8123 31.292C50.1297 31.1029 50.0027 31.6912 49.971 31.8172C49.9393 31.9538 49.8969 32.1113 49.8335 32.2689Z" fill="#5BECCC"/>
<path d="M50.6903 31.313C50.4575 31.9643 50.1085 32.7101 49.9921 32.7311C49.8652 32.6261 50.5527 30.7668 50.8701 30.3361C50.9018 30.3046 50.9124 30.2941 50.9335 30.2941C51.0076 30.3466 50.8489 30.8824 50.6903 31.313Z" fill="#5BECCC"/>
<path d="M50.849 31.0084L50.6797 31.4496C50.9019 30.8614 51.1875 30.0105 51.325 29.5483L50.849 31.0084Z" fill="#5BECCC"/>
<path d="M34.0509 39.5693C33.7653 40.4727 32.2949 40.7878 31.8612 40.042C31.5756 39.5483 31.9988 38.708 33.0566 38.6029C33.9663 38.5924 34.1884 39.1597 34.0509 39.5693Z" fill="#5BECCC"/>
<path d="M37.309 39.2332C36.9387 40.126 35.4578 40.5252 35.1405 39.8109C34.9183 39.3277 35.4261 38.4664 36.4627 38.3088C37.3301 38.2563 37.4782 38.8235 37.309 39.2332Z" fill="#5BECCC"/>
<path d="M40.3344 38.7605C39.8901 39.6849 38.5255 40.1366 38.314 39.4328C38.1553 38.9181 38.8006 38.0672 39.6997 37.8782C40.4719 37.7731 40.5354 38.3298 40.3344 38.7605Z" fill="#5BECCC"/>
<path d="M42.9577 38.1618C42.4817 39.0546 41.3287 39.5798 41.17 38.9811C41.0536 38.5294 41.6777 37.542 42.5452 37.3004C43.2116 37.1639 43.1904 37.7206 42.9577 38.1618Z" fill="#5BECCC"/>
<path d="M45.1474 37.4685C44.6713 38.2983 43.7722 38.8866 43.6135 38.4664C43.476 38.0777 44.1636 36.9223 44.9569 36.6072C45.5176 36.4601 45.4012 37.0273 45.1474 37.4685Z" fill="#5BECCC"/>
<path d="M46.8927 36.7017C46.4167 37.5 45.6763 38.1303 45.5916 37.8046C45.507 37.4685 46.2475 36.208 46.9139 35.8508C47.3264 35.6933 47.136 36.208 47.0831 36.313C47.0514 36.4286 46.9774 36.5546 46.8927 36.7017Z" fill="#5BECCC"/>
<path d="M48.1727 35.8614C47.739 36.5862 47.1678 37.2269 47.1149 37.0693C47.0408 36.8803 47.8871 35.3992 48.416 35C48.4689 34.9685 48.5853 34.895 48.5429 35.1051C48.5006 35.2626 48.3631 35.5462 48.1727 35.8614Z" fill="#5BECCC"/>
<path d="M48.9661 34.979C48.9449 35.021 48.9132 35.0735 48.8921 35.105L48.6593 35.4832C48.5853 35.5987 48.2362 36.145 48.1304 36.25C48.1093 36.1555 49.1459 34.4328 49.3998 34.0966C49.4104 34.0861 49.421 34.0651 49.4421 34.0546H49.4527C49.4315 34.1807 49.1777 34.6324 48.9661 34.979Z" fill="#5BECCC"/>
<path d="M27.4925 42.479C27.429 43.1723 26.202 43.3194 25.6519 42.6996C25.2817 42.2794 25.4615 41.6282 26.4029 41.6177C27.2069 41.6597 27.5242 42.1534 27.4925 42.479Z" fill="#5BECCC"/>
<path d="M30.4438 42.458C30.2428 43.1933 28.8782 43.3614 28.4869 42.6996C28.233 42.2584 28.6138 41.6807 29.4812 41.6387C30.2957 41.6492 30.539 42.1219 30.4438 42.458Z" fill="#5BECCC"/>
<path d="M33.3951 42.3004C33.0672 43.0567 31.6709 43.2878 31.417 42.626C31.2689 42.2479 31.6497 41.6071 32.5912 41.5231C33.3845 41.5021 33.5432 41.9643 33.3951 42.3004Z" fill="#5BECCC"/>
<path d="M36.2829 41.9958C35.828 42.7731 34.4423 43.0672 34.3154 42.416C34.2413 42.0378 34.7279 41.3866 35.6376 41.25C36.4098 41.1975 36.4839 41.6597 36.2829 41.9958Z" fill="#5BECCC"/>
<path d="M38.9592 41.5756C38.4197 42.3319 37.2032 42.7101 37.1186 42.1429C37.0657 41.7647 37.6792 41.0294 38.5466 40.8509C39.2448 40.7668 39.2025 41.2185 38.9592 41.5756Z" fill="#5BECCC"/>
<path d="M41.2758 41.0504C40.7257 41.7437 39.7102 42.1953 39.6256 41.7962C39.5515 41.4495 40.2814 40.5777 41.0959 40.3466C41.6777 40.2311 41.5508 40.6722 41.3392 40.9769C41.3181 40.9874 41.2969 41.0189 41.2758 41.0504Z" fill="#5BECCC"/>
<path d="M43.2221 40.4307C42.6509 41.1029 41.7623 41.6071 41.7518 41.2815C41.7306 40.9664 42.5663 39.9895 43.275 39.7269C43.7404 39.5903 43.5077 40.021 43.4548 40.1155C43.4125 40.1786 43.3385 40.2941 43.2221 40.4307Z" fill="#5BECCC"/>
<path d="M44.7666 39.7479C44.2165 40.3677 43.4866 40.9139 43.4655 40.7143C43.4443 40.4937 44.4175 39.3383 45.031 39.0231C45.0945 39.0021 45.2743 38.9181 45.1791 39.1597C45.1262 39.2962 44.9782 39.5168 44.7666 39.7479Z" fill="#5BECCC"/>
<path d="M45.8984 39.0126C45.4858 39.4748 44.8935 40.0526 44.7771 40.0736C44.7348 39.958 45.9619 38.582 46.3744 38.2773C46.4379 38.2353 46.4484 38.2353 46.459 38.2458C46.4696 38.3614 45.9936 38.9076 45.8984 39.0126Z" fill="#5BECCC"/>
<path d="M47.0303 37.7626C46.6495 38.1933 46.1629 38.792 45.7715 39.2122C46.2581 38.6975 46.9986 37.8046 47.263 37.479C47.2736 37.4685 47.2736 37.458 47.2842 37.458L47.0303 37.7626Z" fill="#5BECCC"/>
<path d="M20.5956 43.9811C20.7966 44.2647 20.7014 44.4118 20.3629 44.3593C19.6436 44.2332 18.6809 43.4454 18.9771 43.2248C19.0618 43.1618 19.2204 43.1828 19.3051 43.1933C19.9186 43.3193 20.4263 43.75 20.5956 43.9811Z" fill="#5BECCC"/>
<path d="M22.8169 44.2752C22.9862 44.6323 22.6371 44.7794 22.0871 44.5903C21.3677 44.3487 20.8917 43.7815 21.2302 43.5819C21.3572 43.5084 21.5158 43.5294 21.6216 43.5294C22.2457 43.6344 22.7006 44.0231 22.8169 44.2752Z" fill="#5BECCC"/>
<path d="M25.1759 44.4643C25.2711 44.937 24.4354 45.021 23.8219 44.6008C23.3459 44.2752 23.3564 43.855 23.843 43.7815C23.9382 43.771 24.0229 43.771 24.0863 43.771C24.7527 43.8445 25.123 44.2227 25.1759 44.4643Z" fill="#5BECCC"/>
<path d="M27.6194 44.5589C27.5771 45.0841 26.4982 45.1576 26.0433 44.6639C25.7683 44.3593 25.9058 43.9181 26.678 43.9076C27.355 43.9496 27.6406 44.3068 27.6194 44.5589Z" fill="#5BECCC"/>
<path d="M30.1052 44.5378C29.9042 45.0841 28.6772 45.1786 28.4339 44.6639C28.2964 44.3803 28.5714 43.9601 29.3225 43.9286C30.01 43.9391 30.1899 44.2857 30.1052 44.5378Z" fill="#5BECCC"/>
<path d="M32.5805 44.4012C32.2103 44.9685 30.9832 45.1155 30.888 44.6113C30.8352 44.3277 31.2265 43.897 31.967 43.834C32.5805 43.813 32.7604 44.1071 32.5805 44.4012Z" fill="#5BECCC"/>
<path d="M35.003 44.1492C34.5481 44.6639 33.3422 44.979 33.3211 44.4853C33.3105 44.2122 33.8077 43.7185 34.5799 43.603C35.1828 43.5609 35.2674 43.8551 35.003 44.1492Z" fill="#5BECCC"/>
<path d="M37.2455 43.792C36.7272 44.2752 35.6694 44.6533 35.6482 44.2752C35.6271 44.0021 36.3146 43.4033 37.0657 43.2458C37.7004 43.1617 37.4359 43.5609 37.4042 43.6029C37.383 43.6554 37.3196 43.729 37.2455 43.792Z" fill="#5BECCC"/>
<path d="M39.2024 43.3508C38.6629 43.8025 37.7321 44.2227 37.7215 43.9706C37.7109 43.729 38.5572 43.0147 39.2765 42.8151C39.689 42.7311 39.5727 42.9622 39.4986 43.0567C39.4351 43.1408 39.3188 43.2458 39.2024 43.3508Z" fill="#5BECCC"/>
<path d="M40.8315 42.8361C40.2603 43.2773 39.4035 43.75 39.4563 43.5399C39.4987 43.3508 40.4824 42.5315 41.1277 42.2899C41.1911 42.2689 41.4027 42.2059 41.2863 42.3949C41.2229 42.5 41.0642 42.6576 40.8315 42.8361Z" fill="#5BECCC"/>
<path d="M42.1327 42.2689C41.6038 42.6681 40.9268 43.0987 40.8527 43.0777C40.8527 42.9937 42.1115 41.9748 42.6404 41.7122C42.7145 41.6807 42.725 41.6807 42.7568 41.6807C42.7673 41.7437 42.4288 42.0378 42.1327 42.2689Z" fill="#5BECCC"/>
<path d="M41.921 42.5C41.9316 42.5 43.5712 41.208 43.7827 41.0504C43.7933 41.0399 43.8145 41.0294 43.8356 41.0189C43.8356 41.0294 43.8356 41.0504 43.5817 41.25C43.0846 41.6282 42.4287 42.1429 41.921 42.5Z" fill="#5BECCC"/>
<path d="M34.0827 21.3551C21.9708 30.0316 8.8222 32.4895 4.7179 26.8383C2.86673 24.2963 3.16292 20.5358 5.1516 16.3866C2.27436 21.3551 1.58678 25.9874 3.78703 29.0021C7.99711 34.79 21.2303 32.458 33.3317 23.771C41.3499 18.0253 46.861 10.9559 48.4583 5.1366C46.1629 10.3887 41.0537 16.3551 34.0827 21.3551Z" fill="#0051F9"/>
<path d="M41.2229 15.2731C41.5826 14.9055 41.9317 14.5378 42.2702 14.1702C42.2702 14.1597 42.2596 14.1492 42.2596 14.1282C42.0798 13.6135 41.5403 12.9412 40.9056 13.0462C40.0593 13.3193 40.419 14.7794 41.2229 15.2731Z" fill="#5BECCC"/>
<path d="M34.0827 21.3551C34.5799 20.9979 35.077 20.6303 35.553 20.2626C35.3415 19.874 34.9395 19.5484 34.3471 19.5799C33.3528 19.7479 33.1201 20.9349 33.6596 21.6492C33.8077 21.5547 33.9452 21.4496 34.0827 21.3551Z" fill="#5BECCC"/>
<path d="M36.8541 32.2689C22.7535 41.8593 7.32002 44.4013 2.39063 37.9517C0.856804 35.9454 0.518305 33.3193 1.1953 30.3466C-0.433724 34.4013 -0.444303 38.0462 1.5338 40.6408C6.47378 47.0903 21.8967 44.5483 35.9973 34.958C45.708 28.3508 52.2452 20.1156 53.7685 13.5294C51.3144 19.5693 45.2743 26.5336 36.8541 32.2689Z" fill="#0051F9"/>
<path d="M29.6822 38.7395C29.3013 38.9391 28.9205 39.1387 28.5397 39.3277C28.4022 39.5903 28.4128 39.895 28.5715 40.126C29.0898 40.8928 30.5496 40.6407 30.7294 39.7479C30.814 39.3487 30.539 38.7815 29.6822 38.7395Z" fill="#5BECCC"/>
<path d="M24.5835 42.3739C24.5623 42.0798 24.245 41.6491 23.6103 41.5021C23.2718 41.6281 22.9333 41.7542 22.5948 41.8802C22.5525 42.0903 22.6477 42.3529 22.9122 42.584C23.5892 43.1512 24.647 43.0252 24.5835 42.3739Z" fill="#5BECCC"/>
<path d="M18.554 43.6029C18.4588 43.4979 18.3107 43.3718 18.1308 43.2353C17.8981 43.2983 17.6654 43.3508 17.4327 43.4034C17.8135 43.6975 18.3212 43.9706 18.6174 43.9916C18.8184 44.0021 18.7867 43.8445 18.554 43.6029Z" fill="#5BECCC"/>
<path d="M54.509 6.02936L49.9816 4.1386C49.9181 4.10709 49.8441 4.15961 49.8441 4.23314V9.29617C49.8441 9.42222 49.9181 9.53776 50.0451 9.59028L54.435 11.334C54.4984 11.355 54.5725 11.313 54.5725 11.2394V6.1239C54.5725 6.08188 54.5513 6.03986 54.509 6.02936Z" fill="#0051F9"/>
<path d="M54.9216 5.49369L59.3009 3.66596C59.3749 3.63445 59.3855 3.5189 59.3009 3.48739L55.0168 1.50209C54.9322 1.46008 54.837 1.46008 54.7523 1.50209L50.4682 3.48739C50.3942 3.5189 50.3942 3.63445 50.4682 3.66596L54.8475 5.49369C54.8687 5.5042 54.9004 5.5042 54.9216 5.49369Z" fill="#0051F9"/>
<path d="M55.1966 6.12401V11.2396C55.1966 11.3131 55.2706 11.3551 55.3341 11.3341L59.724 9.59039C59.8404 9.53787 59.925 9.43283 59.925 9.29628V4.22275C59.925 4.14922 59.851 4.1072 59.7875 4.12821L55.2601 6.01897C55.2283 6.03998 55.1966 6.08199 55.1966 6.12401Z" fill="#0051F9"/>
</g>
<defs>
<clipPath id="clip0_3008_5557">
<rect width="172" height="45" fill="white"/>
</clipPath>
</defs>
</svg>
