<svg width="64" height="64" viewBox="0 0 64 64" fill="none" xmlns="http://www.w3.org/2000/svg">
<path opacity="0.1" d="M13.0166 32.875H15.6714C15.8703 32.875 16.0611 32.796 16.2017 32.6553C16.3424 32.5147 16.4214 32.3239 16.4214 32.125C16.4214 31.9261 16.3424 31.7353 16.2017 31.5947C16.0611 31.454 15.8703 31.375 15.6714 31.375H13.007C13.1338 27.5074 14.5022 23.7833 16.9097 20.7537C19.3172 17.7242 22.636 15.55 26.375 14.5529V13.975C17 14.4223 9.57714 22 9.25702 31.375H11.9214C12.1203 31.375 12.3111 31.454 12.4517 31.5947C12.5924 31.7353 12.6714 31.9261 12.6714 32.125C12.6714 32.3239 12.5924 32.5147 12.4517 32.6553C12.3111 32.796 12.1203 32.875 11.9214 32.875H9.26664C9.71127 42 17.125 49.4895 26.375 49.9324V49.35C18.9423 47.3678 13.3993 40.727 13.0166 32.875Z" fill="#0051F9"/>
<path d="M29.1159 14.0526C28.7059 14.0099 28.2923 13.981 27.875 13.966V14.225C28.2839 14.1534 28.6975 14.096 29.1159 14.0526Z" fill="#D4E1F4"/>
<path d="M27.875 49.6808V49.9425C28.3 49.9281 28.7189 49.8993 29.1318 49.8561C28.7083 49.8123 28.2893 49.7538 27.875 49.6808Z" fill="#D4E1F4"/>
<path opacity="0.1" d="M35.699 47.2405C35.7026 44.5409 36.6634 41.93 38.4105 39.8719C40.1575 37.8139 42.5778 36.4419 45.241 36C43.6105 35.7318 41.9411 35.8216 40.3488 36.2631C38.7564 36.7046 37.2791 37.4872 36.0195 38.5566C34.7598 39.626 33.7478 40.9567 33.0538 42.4563C32.3598 43.9559 32.0003 45.5886 32.0003 47.241C32.0003 48.8934 32.3598 50.5261 33.0538 52.0257C33.7478 53.5253 34.7598 54.856 36.0195 55.9254C37.2791 56.9948 38.7564 57.7774 40.3488 58.2189C41.9411 58.6604 43.6105 58.7501 45.241 58.482C42.5776 58.04 40.1573 56.6679 38.4102 54.6096C36.6631 52.5514 35.7024 49.9403 35.699 47.2405Z" fill="#0051F9"/>
<path d="M50.7125 42.8887L44.05 39.0353C43.9181 38.9585 43.7682 38.9181 43.6156 38.9181C43.463 38.9181 43.3131 38.9585 43.1813 39.0353L36.5347 42.8887C36.4051 42.9671 36.2988 43.0787 36.2267 43.2119C36.1547 43.3452 36.1196 43.4952 36.125 43.6466V51.3534C36.1202 51.505 36.1559 51.6551 36.2284 51.7883C36.3009 51.9215 36.4076 52.033 36.5375 52.1113L43.2 55.9647C43.3308 56.0415 43.4796 56.0819 43.6313 56.0819C43.7839 56.0819 43.9338 56.0415 44.0658 55.9647L50.7138 52.1113C50.8435 52.033 50.9501 51.9214 51.0224 51.7882C51.0947 51.655 51.1301 51.5049 51.125 51.3534V43.6466C51.1298 43.495 51.0941 43.3449 51.0216 43.2117C50.9491 43.0785 50.8424 42.967 50.7125 42.8887ZM43.625 46.4888L41.9724 45.5346L46.8963 42.6917L48.5489 43.6459L43.625 46.4888ZM43.625 40.8031L45.1463 41.6814L40.2223 44.525L38.7011 43.6468L43.625 40.8031ZM37.875 45.1613L42.75 48.0044V53.691L37.875 50.8479V45.1613ZM44.5 53.691V48.0047L49.375 45.1616V50.8483L44.5 53.691Z" fill="#5BECCC"/>
<path d="M8.26874 31.9614C8.26874 42.6934 16.9187 51.4394 27.6172 51.583C27.6629 51.5977 27.7097 51.6085 27.7571 51.6152C27.7987 51.6152 27.8346 51.625 27.8747 51.625C29.5712 51.6194 31.2598 51.3947 32.8986 50.9565C33.1249 50.8971 33.3184 50.7503 33.4364 50.5483C33.5544 50.3463 33.5874 50.1057 33.528 49.8794C33.4686 49.6531 33.3218 49.4596 33.1198 49.3416C32.9178 49.2236 32.6772 49.1906 32.4509 49.25C31.1992 49.5739 29.9168 49.7646 28.625 49.8189V47.1659C28.625 46.9338 28.5328 46.7113 28.3687 46.5472C28.2046 46.3831 27.9821 46.2909 27.75 46.2909C27.5179 46.2909 27.2954 46.3831 27.1313 46.5472C26.9672 46.7113 26.875 46.9338 26.875 47.1659V49.8081C17.875 49.307 10.5312 42 10.0285 33H12.5514C12.7834 33 13.006 32.9078 13.1701 32.7437C13.3342 32.5796 13.4264 32.3571 13.4264 32.125C13.4264 31.8929 13.3342 31.6704 13.1701 31.5063C13.006 31.3422 12.7834 31.25 12.5514 31.25H10.0169C10.198 26.8106 12.0242 22.5974 15.1402 19.4301C18.2562 16.2629 22.4391 14.3682 26.875 14.1147V16.7638C26.875 16.9958 26.9672 17.2184 27.1313 17.3825C27.2954 17.5466 27.5179 17.6388 27.75 17.6388C27.9821 17.6388 28.2046 17.5466 28.3687 17.3825C28.5328 17.2184 28.625 16.9958 28.625 16.7638V14.1034C37.875 14.4889 45.35 22 45.7331 31.25H42.9535C42.7214 31.25 42.4989 31.3422 42.3348 31.5063C42.1707 31.6704 42.0785 31.8929 42.0785 32.125C42.0785 32.3571 42.1707 32.5796 42.3348 32.7437C42.4989 32.9078 42.7214 33 42.9535 33H45.7211C45.6591 34.1213 45.4909 35.2342 45.2187 36.3237C45.191 36.4347 45.1855 36.55 45.2026 36.663C45.2197 36.7761 45.259 36.8846 45.3183 36.9824C45.3776 37.0802 45.4556 37.1652 45.548 37.2327C45.6403 37.3001 45.7451 37.3485 45.8562 37.3753C46.082 37.4304 46.3204 37.3938 46.5193 37.2736C46.7181 37.1533 46.8612 36.9591 46.9171 36.7335C47.3051 35.1733 47.5008 33.5715 47.5 31.9638C47.5044 28.1922 46.4157 24.5001 44.3656 21.3344L46.5091 19.1903C46.8549 18.8435 47.0491 18.3737 47.0491 17.884C47.0491 17.3943 46.8549 16.9245 46.5091 16.5777L45.0304 15.0989C44.6837 14.7529 44.2139 14.5586 43.7241 14.5586C43.2343 14.5586 42.7645 14.7529 42.4179 15.0989L40.5179 16.9802C37.7058 14.5947 34.276 13.0536 30.625 12.5352V10.125H31.8199C32.0583 10.1278 32.2948 10.0829 32.5156 9.99272C32.7363 9.90258 32.9367 9.76912 33.105 9.60021C33.2733 9.4313 33.406 9.23038 33.4953 9.00931C33.5846 8.78825 33.6287 8.55152 33.625 8.31312V6.22175C33.6294 5.98153 33.586 5.74283 33.4973 5.51952C33.4087 5.29621 33.2765 5.09273 33.1086 4.92092C32.9406 4.7491 32.7402 4.61236 32.519 4.51865C32.2978 4.42493 32.0601 4.3761 31.8199 4.375H23.93C23.6897 4.3761 23.4521 4.42493 23.2309 4.51865C23.0096 4.61237 22.8092 4.74911 22.6413 4.92092C22.4734 5.09274 22.3412 5.29622 22.2526 5.51953C22.164 5.74284 22.1206 5.98153 22.125 6.22175V8.31312C22.1212 8.55152 22.1653 8.78824 22.2546 9.00931C22.3439 9.23037 22.4766 9.4313 22.6449 9.6002C22.8132 9.76911 23.0136 9.90258 23.2343 9.99272C23.455 10.0829 23.6916 10.1278 23.93 10.125H25.125V12.5352C15.625 13.893 8.26874 22.0864 8.26874 31.9614ZM43.6562 16.3364C43.6744 16.3183 43.699 16.3082 43.7247 16.3082C43.7503 16.3082 43.7749 16.3183 43.7931 16.3364L45.272 17.815C45.281 17.824 45.2882 17.8347 45.2931 17.8465C45.298 17.8583 45.3006 17.871 45.3006 17.8838C45.3006 17.8965 45.298 17.9092 45.2931 17.921C45.2882 17.9328 45.281 17.9435 45.272 17.9525L43.336 19.8875C42.8651 19.2861 42.3598 18.7125 41.8226 18.1695L43.6562 16.3364ZM32 8.27825C32 8.30392 31.9897 8.32853 31.9716 8.34667C31.9534 8.36481 31.9288 8.375 31.9031 8.375H23.9719C23.9462 8.375 23.9216 8.36481 23.9034 8.34667C23.8852 8.32853 23.875 8.30392 23.875 8.27825V6.22175C23.875 6.19608 23.8852 6.17147 23.9034 6.15333C23.9216 6.13519 23.9462 6.125 23.9719 6.125H31.9031C31.9288 6.125 31.9534 6.13519 31.9716 6.15333C31.9897 6.17147 32 6.19608 32 6.22175V8.27825ZM26.875 10.125H28.875V12.3639C28.625 12.3459 28.2042 12.3364 27.8562 12.3364C27.8377 12.3364 27.8287 12.3371 27.8102 12.3371C27.788 12.3354 27.7704 12.3337 27.7477 12.3337C27.7226 12.3338 27.6976 12.3356 27.6727 12.3392C27.3985 12.3422 27.1246 12.3496 26.8746 12.3643L26.875 10.125Z" fill="#0051F9"/>
<path d="M27.875 22.0085C27.643 22.0085 27.4204 22.1007 27.2563 22.2648C27.0922 22.4289 27 22.6514 27 22.8835V32.2234C26.9961 32.338 27.0148 32.4523 27.0551 32.5597C27.0953 32.6671 27.1564 32.7655 27.2348 32.8492C27.3131 32.933 27.4073 33.0004 27.5117 33.0478C27.6162 33.0951 27.729 33.1213 27.8437 33.125H34.8454C35.0775 33.125 35.3 33.0328 35.4641 32.8687C35.6282 32.7046 35.7204 32.4821 35.7204 32.25C35.7204 32.0179 35.6282 31.7954 35.4641 31.6313C35.3 31.4672 35.0775 31.375 34.8454 31.375H28.75V22.8835C28.75 22.6514 28.6578 22.4289 28.4937 22.2648C28.3297 22.1007 28.1071 22.0085 27.875 22.0085Z" fill="#0051F9"/>
<path d="M43.625 35.375C41.2269 35.375 38.8827 36.0861 36.8887 37.4184C34.8948 38.7507 33.3407 40.6444 32.423 42.86C31.5053 45.0755 31.2651 47.5134 31.733 49.8655C32.2008 52.2175 33.3556 54.3779 35.0513 56.0737C36.747 57.7694 38.9075 58.9242 41.2595 59.392C43.6116 59.8599 46.0495 59.6197 48.265 58.702C50.4806 57.7843 52.3743 56.2302 53.7066 54.2363C55.0389 52.2423 55.75 49.8981 55.75 47.5C55.7464 44.2854 54.4677 41.2034 52.1947 38.9303C49.9216 36.6573 46.8396 35.3786 43.625 35.375ZM43.625 57.875C41.573 57.875 39.5671 57.2665 37.861 56.1265C36.1548 54.9865 34.825 53.3661 34.0398 51.4703C33.2545 49.5745 33.049 47.4885 33.4494 45.4759C33.8497 43.4634 34.8378 41.6147 36.2888 40.1638C37.7397 38.7128 39.5884 37.7247 41.6009 37.3244C43.6135 36.924 45.6996 37.1295 47.5953 37.9147C49.4911 38.7 51.1115 40.0298 52.2515 41.736C53.3915 43.4421 54 45.448 54 47.5C53.9969 50.2507 52.9028 52.8878 50.9578 54.8328C49.0128 56.7778 46.3757 57.8719 43.625 57.875Z" fill="#5BECCC"/>
</svg>
