<svg width="64" height="64" viewBox="0 0 64 64" fill="none" xmlns="http://www.w3.org/2000/svg">
<path d="M10 39.25H16C16.55 39.25 17 39.6375 17 40.125C17 40.6125 16.55 41 16 41H10C9.45 41 9 40.6125 9 40.125C9 39.6375 9.45 39.25 10 39.25Z" fill="#5BECCC"/>
<path d="M63 60C63.4875 60 63.875 59.6125 63.875 59.125V51.125C63.875 50.9875 63.8375 50.85 63.7875 50.7375L60.7875 44.7375C60.6375 44.4375 60.3375 44.25 60 44.25H54H53.875V44.125V41.125C53.875 40.6375 53.4875 40.25 53 40.25H33C32.5125 40.25 32.125 40.6375 32.125 41.125V59.125C32.125 59.6125 32.5125 60 33 60H37.1375H37.2375L37.2625 60.1C37.7 61.8125 39.2375 63.0125 41 63.0125C41.325 63.0125 41.6375 62.975 41.95 62.8875C43.325 62.5375 44.3875 61.475 44.7375 60.1L44.7625 60H44.8625H52.15H52.25L52.275 60.1C52.7125 61.8125 54.25 63.0125 56.0125 63.0125C56.3375 63.0125 56.65 62.975 56.9625 62.8875C58.3375 62.5375 59.4 61.475 59.75 60.1L59.775 60H59.875H63ZM41 61.25C39.825 61.25 38.875 60.3 38.875 59.125C38.875 57.95 39.825 57 41 57C42.175 57 43.125 57.95 43.125 59.125C43.125 60.3 42.175 61.25 41 61.25ZM52.125 42.125V58.125V58.25H52H44.8625H44.7625L44.7375 58.15C44.3 56.45 42.7625 55.25 41 55.25C39.2375 55.25 37.7 56.45 37.2625 58.15L37.2375 58.25H37.1375H34H33.875V58.125V42.125V42H34H52H52.125V42.125ZM57.875 50.125V46.125V46H58H59.3875H59.4625L59.5 46.075L61.5 50.075L61.5875 50.25H61.3875H58H57.875V50.125ZM56 61.25C54.825 61.25 53.875 60.3 53.875 59.125C53.875 57.95 54.825 57 56 57C57.175 57 58.125 57.95 58.125 59.125C58.125 60.3 57.175 61.25 56 61.25ZM59.7375 58.15C59.3 56.45 57.7625 55.25 56 55.25C55.325 55.25 54.65 55.4375 54.0625 55.7875L53.875 55.9V55.675V46.125V46H54H56H56.125V46.125V51.125C56.125 51.6125 56.5125 52 57 52H62H62.125V52.125V58.125V58.25H62H59.8625H59.7625L59.7375 58.15Z" fill="#0051F9"/>
<path d="M25 17.25C25.4875 17.25 25.875 17.6375 25.875 18.125C25.875 18.6125 25.4875 19 25 19C24.5125 19 24.125 18.6125 24.125 18.125C24.125 17.6375 24.5125 17.25 25 17.25Z" fill="#5BECCC"/>
<path d="M29 17.25C29.4875 17.25 29.875 17.6375 29.875 18.125C29.875 18.6125 29.4875 19 29 19C28.5125 19 28.125 18.6125 28.125 18.125C28.125 17.6375 28.5125 17.25 29 17.25Z" fill="#5BECCC"/>
<path d="M33 17.25C33.4875 17.25 33.875 17.6375 33.875 18.125C33.875 18.6125 33.4875 19 33 19C32.5125 19 32.125 18.6125 32.125 18.125C32.125 17.6375 32.5125 17.25 33 17.25Z" fill="#5BECCC"/>
<path d="M37 17.25C37.4875 17.25 37.875 17.6375 37.875 18.125C37.875 18.6125 37.4875 19 37 19C36.5125 19 36.125 18.6125 36.125 18.125C36.125 17.6375 36.5125 17.25 37 17.25Z" fill="#5BECCC"/>
<path d="M24.4125 60.2125C23.8 59.5625 22.9875 59.1375 22.1 59.0125L21.95 58.9875L22 58.8375L25.8125 48.15C25.8875 47.925 25.875 47.6875 25.775 47.475C25.675 47.2625 25.5 47.1 25.275 47.025H25.2625L22.825 46.2125L22.75 46.1875V46.125L20.85 35.7125C20.775 35.3 20.4125 35 19.9875 35H15.9875H15.8625V34.875V31.875C15.8625 31.3875 15.475 31 14.9875 31H10.9875C10.5 31 10.1125 31.3875 10.1125 31.875V34.875V35H9.9875H6C5.575 35 5.2125 35.3 5.1375 35.7125L3.25 46.125L3.2375 46.2L3.1625 46.225L0.725 47.0375C0.5 47.1125 0.325 47.2625 0.225 47.475C0.125 47.6875 0.0999999 47.925 0.175 48.15V48.1625L4 58.85L4.05 59L3.9 59.025C3.0125 59.15 2.2 59.575 1.5875 60.225C1.225 60.675 0.7 60.95 0.125 61V62.75C1.125 62.7125 2.075 62.275 2.75 61.5375C3.1375 61.05 3.7125 60.7625 4.3375 60.7625H4.35C4.575 60.7625 4.7875 60.8 5 60.8875C5.025 60.9 5.0375 60.9 5.0375 60.9125C5.3625 61.075 5.65 61.2875 5.9 61.55C6.6125 62.3125 7.625 62.7625 8.6625 62.7625C9.7 62.7625 10.7125 62.3125 11.4125 61.5375C11.8 61.0375 12.375 60.7625 13 60.7625C13.4375 60.7625 13.8625 60.9 14.2125 61.175C14.35 61.275 14.475 61.4 14.575 61.5375C15.275 62.3125 16.275 62.75 17.325 62.7625C18.3625 62.75 19.375 62.3125 20.0875 61.55C20.3375 61.2875 20.625 61.075 20.95 60.9125C20.9625 60.9 20.975 60.9 20.9875 60.8875C21.2 60.8 21.425 60.7625 21.65 60.7625H21.6625C22.2875 60.775 22.8625 61.0625 23.2375 61.5375C23.9125 62.275 24.8625 62.7125 25.8625 62.75V61C25.3 60.95 24.775 60.6625 24.4125 60.2125ZM11.875 34.875V32.875V32.75H12H14H14.125V32.875V34.875V35H14H12H11.875V34.875ZM12.125 45.2625V59V59.0875L12.0375 59.1125C11.3625 59.325 10.75 59.7 10.2625 60.2125C9.8875 60.7125 9.3 60.9875 8.675 60.9875C8.2375 60.9875 7.8125 60.85 7.4625 60.575C7.325 60.475 7.2 60.35 7.1 60.2125C6.8 59.925 6.4625 59.6625 6.1 59.4375L6.0625 59.4125L6.05 59.375L2.175 48.525L2.1375 48.4L2.2625 48.3625L11.975 45.125L12.1375 45.075V45.2625H12.125ZM13 43C12.9 43 12.8125 43.0125 12.725 43.05L5.325 45.5L5.125 45.5625L5.1625 45.35L6.7125 36.8375L6.725 36.7375H6.825H19.15H19.25L19.2625 36.8375L20.8125 45.35L20.85 45.5625L20.65 45.5L13.25 43.0375C13.1875 43.0125 13.1 43 13 43ZM19.9625 59.3875L19.95 59.425L19.9125 59.45C19.5625 59.6625 19.225 59.925 18.925 60.2125C18.55 60.7 17.9625 60.9875 17.3375 60.9875C16.9 60.9875 16.475 60.85 16.125 60.575C15.9875 60.475 15.8625 60.35 15.7625 60.2125C15.275 59.7 14.65 59.3125 13.9625 59.1125L13.875 59.0875V59V45.2625V45.0875L14.0375 45.1375L23.75 48.375L23.875 48.4125L23.8375 48.5375L19.9625 59.3875Z" fill="#0051F9"/>
<path d="M40.875 17.375C41.3625 17.375 41.75 17.7625 41.75 18.25C41.75 18.7375 41.3625 19.125 40.875 19.125C40.3875 19.125 40 18.7375 40 18.25C40 17.7625 40.3875 17.375 40.875 17.375Z" fill="#5BECCC"/>
<path d="M56.75 19.9125L53.6625 16.825C51.375 14.55 48.35 13.2875 45.125 13.275H37.4125C37.3625 13.275 37.325 13.25 37.3 13.2125L32.625 5.725C32.4625 5.475 32.1875 5.3125 31.8875 5.3125H28.9C28.425 5.3125 28.025 5.7 28.025 6.1875C28.025 6.2625 28.0375 6.325 28.05 6.4L29.725 13.1125C29.7375 13.15 29.725 13.1875 29.7 13.225C29.675 13.2625 29.6375 13.275 29.6 13.275H21.6875C21.625 13.275 21.575 13.2375 21.5625 13.175L18.7875 3.9375C18.675 3.575 18.3375 3.3125 17.95 3.3125H13C12.5125 3.3125 12.125 3.7 12.125 4.1875V14H12.1375V14.125C12.1375 14.35 12.225 14.575 12.3875 14.7375L18.6 20.95C19.8625 22.225 21.3375 23.2125 22.9875 23.9C24.6375 24.5875 26.3875 24.9375 28.175 24.9375H28.2H28.4625C28.5125 24.9375 28.55 24.9625 28.575 25C28.6 25.0375 28.6 25.0875 28.5875 25.125L26.125 30.675C26.025 30.9 26.025 31.15 26.1125 31.375C26.2 31.5875 26.35 31.7625 26.5625 31.85C26.5875 31.8625 26.6125 31.875 26.6375 31.875L29.625 32.875C29.7125 32.9 29.8125 32.925 29.9 32.925C30.1875 32.925 30.45 32.7875 30.6125 32.55L35.875 25.025C35.9 24.9875 35.9375 24.9625 35.9875 24.9625H54.6625C56.3 24.9625 57.625 23.6375 57.625 22.0125C57.625 21.225 57.3 20.4625 56.75 19.9125ZM30.0875 7.1125C30.1125 7.075 30.15 7.0625 30.1875 7.0625H31.3375C31.3875 7.0625 31.425 7.0875 31.45 7.125L35.175 13.075C35.2 13.1125 35.2 13.1625 35.175 13.2125C35.15 13.25 35.1125 13.275 35.0625 13.275H31.6875C31.625 13.275 31.575 13.2375 31.5625 13.175L30.075 7.225C30.05 7.1875 30.0625 7.1375 30.0875 7.1125ZM13.8625 13.15V5.2C13.8625 5.125 13.925 5.0625 14 5.0625H17.225C17.2875 5.0625 17.3375 5.1 17.35 5.1625L19.7375 13.1C19.75 13.1375 19.7375 13.1875 19.7125 13.2125C19.6875 13.25 19.65 13.2625 19.6125 13.2625H14C13.925 13.275 13.8625 13.2125 13.8625 13.15ZM35.0375 23.175L29.6125 30.9375C29.5875 30.975 29.55 31 29.5 31H29.475L29.45 30.9875L28.225 30.575L28.175 30.5625L28.15 30.5125C28.1375 30.475 28.1375 30.4375 28.15 30.4L31.4125 23.05C31.4375 23 31.475 22.975 31.5375 22.975H34.925C34.975 22.975 35.025 23 35.0375 23.05C35.0625 23.0875 35.0625 23.1375 35.0375 23.175ZM55.7875 22.4625C55.6 22.925 55.1625 23.225 54.6625 23.225H54.65H37.375C37.325 23.225 37.275 23.2 37.2625 23.15C37.25 23.1 37.2375 23.05 37.275 23.0125L37.5375 22.625C37.7625 22.3 37.775 21.8875 37.55 21.5875C37.3875 21.3625 37.125 21.225 36.8375 21.225H30.875C30.5375 21.225 30.225 21.425 30.075 21.7375L29.45 23.1375C29.425 23.1875 29.375 23.2125 29.325 23.2125H28.175H28.15C26.5875 23.2125 25.0625 22.9125 23.625 22.3125C22.1875 21.7125 20.9 20.85 19.8 19.7375L15.3 15.2375C15.2625 15.2 15.25 15.1375 15.275 15.0875C15.3 15.0375 15.3375 15 15.4 15H45.125C47.325 15.0125 49.425 15.7 51.2 17C51.2375 17.025 51.25 17.0625 51.25 17.1125C51.25 17.125 51.25 17.1375 51.25 17.15C51.2375 17.2 51.1875 17.2375 51.125 17.2375H45.075C45.0375 17.2375 45.0125 17.2375 44.975 17.2375C44.4875 17.2375 44.1 17.625 44.1 18.1125C44.1 18.6 44.4875 18.9875 44.975 18.9875C45.0125 18.9875 45.0375 18.9875 45.075 18.9875H53.3125H53.3625L53.4 19.025L55.5125 21.1375C55.875 21.475 55.9875 22.0125 55.7875 22.4625Z" fill="#0051F9"/>
</svg>
