<svg width="122" height="23" viewBox="0 0 122 23" fill="none" xmlns="http://www.w3.org/2000/svg">
<g opacity="0.4" clip-path="url(#clip0_3003_2432)">
<path d="M122 5.17863C121.182 5.5375 120.31 5.77537 119.401 5.89087C120.336 5.33262 121.05 4.45537 121.385 3.398C120.514 3.91775 119.551 4.28488 118.525 4.48975C117.698 3.60838 116.518 3.0625 115.231 3.0625C112.734 3.0625 110.724 5.08925 110.724 7.57388C110.724 7.93138 110.754 8.27512 110.828 8.60237C107.078 8.4195 103.761 6.62238 101.532 3.88475C101.143 4.55988 100.914 5.33262 100.914 6.1645C100.914 7.7265 101.719 9.11112 102.918 9.91275C102.193 9.899 101.482 9.68862 100.88 9.35725C100.88 9.371 100.88 9.38888 100.88 9.40675C100.88 11.5985 102.443 13.419 104.493 13.8384C104.126 13.9388 103.726 13.9869 103.311 13.9869C103.022 13.9869 102.731 13.9704 102.457 13.9099C103.041 15.696 104.7 17.0091 106.672 17.0518C105.137 18.2521 103.189 18.9754 101.079 18.9754C100.71 18.9754 100.355 18.9589 100 18.9135C101.998 20.2019 104.366 20.9375 106.919 20.9375C115.219 20.9375 119.756 14.0625 119.756 8.10325C119.756 7.90387 119.749 7.71138 119.74 7.52025C120.635 6.885 121.387 6.09162 122 5.17863Z" fill="white"/>
</g>
<path d="M54.4725 6.25H50V20H54.4725V6.25Z" fill="white"/>
<path d="M66.655 6.41125C66.6075 6.39625 66.5625 6.38 66.5125 6.36625C66.4525 6.3525 66.3925 6.34125 66.3312 6.33125C66.0937 6.28375 65.8338 6.25 65.5288 6.25C62.9213 6.25 61.2675 8.14625 60.7225 8.87875V6.25H56.25V20H60.7225V12.5C60.7225 12.5 64.1025 7.7925 65.5288 11.25C65.5288 14.3363 65.5288 20 65.5288 20H70V10.7212C70 8.64375 68.5763 6.9125 66.655 6.41125Z" fill="white"/>
<path d="M52.1875 4.375C53.3956 4.375 54.375 3.39562 54.375 2.1875C54.375 0.979377 53.3956 0 52.1875 0C50.9794 0 50 0.979377 50 2.1875C50 3.39562 50.9794 4.375 52.1875 4.375Z" fill="white"/>
<g opacity="0.4">
<path d="M17.5 1H2.5C1.12125 1 0 2.12125 0 3.5V18.5C0 19.8787 1.12125 21 2.5 21H10V14.125H7.5V11H10V8.5C10 6.42875 11.6788 4.75 13.75 4.75H16.25V7.875H15C14.31 7.875 13.75 7.81 13.75 8.5V11H16.875L15.625 14.125H13.75V21H17.5C18.8787 21 20 19.8787 20 18.5V3.5C20 2.12125 18.8787 1 17.5 1Z" fill="white"/>
</g>
<defs>
<clipPath id="clip0_3003_2432">
<rect width="22" height="22" fill="white" transform="translate(100 1)"/>
</clipPath>
</defs>
</svg>
