<svg width="16" height="16" viewBox="0 0 16 16" fill="none" xmlns="http://www.w3.org/2000/svg">
<path d="M15.5 8.667C15.224 8.667 15 8.443 15 8.167C15 6.248 14.256 4.448 12.904 3.096C11.553 1.744 9.75201 1 7.83301 1C7.55701 1 7.33301 0.776 7.33301 0.5C7.33301 0.224 7.55701 0 7.83301 0C10.019 0 12.071 0.848 13.611 2.389C15.151 3.929 16 5.981 16 8.167C16 8.443 15.776 8.667 15.5 8.667Z" fill="#0051F9"/>
<path d="M13.309 8.66698C13.033 8.66698 12.809 8.44298 12.809 8.16698C12.809 6.83398 12.292 5.58398 11.354 4.64598C10.416 3.70798 9.16601 3.19098 7.83301 3.19098C7.55701 3.19098 7.33301 2.96698 7.33301 2.69098C7.33301 2.41498 7.55701 2.19098 7.83301 2.19098C9.43301 2.19098 10.934 2.81198 12.061 3.93898C13.188 5.06598 13.809 6.56798 13.809 8.16698C13.809 8.44298 13.585 8.66698 13.309 8.66698Z" fill="#0051F9"/>
<path d="M11.119 8.66702C11.118 8.66702 11.117 8.66702 11.116 8.66702C10.84 8.66502 10.617 8.44002 10.619 8.16402C10.624 7.42502 10.334 6.72602 9.805 6.19602C9.275 5.66602 8.596 5.39202 7.837 5.38202C7.56 5.41302 7.336 5.16202 7.334 4.88502C7.332 4.60902 7.555 4.38302 7.831 4.38202C8.867 4.39002 9.792 4.76902 10.513 5.48902C11.234 6.20902 11.627 7.16202 11.62 8.17002C11.617 8.44502 11.394 8.66702 11.119 8.66702Z" fill="#0051F9"/>
<path d="M10.743 16C10.71 16 10.677 15.999 10.644 15.996C4.98601 15.558 0.412009 10.986 0.00300877 5.361C-0.0219912 5.013 0.0980083 4.667 0.332008 4.413C0.566008 4.16 0.884009 4.019 1.22901 4.017L3.52901 4C4.10301 4 4.59701 4.384 4.73501 4.934L5.21501 6.841C5.33701 7.325 5.15601 7.831 4.75501 8.13L3.92601 8.748C4.69201 10.109 5.83701 11.261 7.20801 12.047L7.85201 11.195C8.15101 10.799 8.65601 10.619 9.14201 10.739L11.062 11.216C11.614 11.353 12 11.845 12 12.412V14.766C12 15.111 11.861 15.43 11.607 15.664C11.374 15.88 11.063 16 10.743 16Z" fill="#0051F9"/>
</svg>
